<svg xmlns="http://www.w3.org/2000/svg" xmlns:xlink="http://www.w3.org/1999/xlink" width="1366" zoomAndPan="magnify" viewBox="0 0 1024.5 225" height="300" preserveAspectRatio="xMidYMid meet" version="1.0"><defs><clipPath id="id1"><path d="M 264.375 2.183594 L 745.492188 2.183594 L 745.492188 224.929688 L 264.375 224.929688 Z M 264.375 2.183594 " clip-rule="nonzero"/></clipPath></defs><g clip-path="url(#id1)"><path fill="#ffffff" d="M 392.585938 85.515625 C 392.589844 85.621094 392.601562 85.726562 392.628906 85.828125 C 393.324219 88.246094 395.070312 85.511719 396.222656 86.875 C 395.859375 88.191406 392.445312 89.320312 395.972656 90.742188 C 396.214844 90.847656 396.375 91.617188 396.285156 91.996094 C 396.082031 92.800781 396.066406 93.460938 396.191406 94.007812 L 352.441406 105.71875 C 352.035156 104.695312 351.625 103.667969 351.207031 102.65625 C 352.320312 105.921875 348.992188 105.234375 347.761719 106.328125 C 347.945312 106.558594 348.140625 106.714844 348.347656 106.8125 L 311.964844 116.546875 C 311.304688 115.746094 310.449219 115.109375 309.050781 114.992188 C 309.484375 115.785156 309.851562 116.457031 310.175781 117.027344 L 291.191406 122.105469 C 291.214844 119.980469 291.171875 117.863281 291 115.746094 C 290.945312 114.859375 290.558594 114.042969 289.710938 113.5625 L 289.722656 113.554688 L 289.613281 113.511719 C 289.648438 113.527344 289.679688 113.546875 289.710938 113.5625 C 289.296875 113.957031 288.84375 114.367188 289.015625 115.007812 C 289.644531 117.5 289.648438 120.015625 289.585938 122.539062 L 281.734375 124.636719 C 279.902344 125.128906 278.300781 126.050781 277.007812 127.269531 C 276.675781 126.460938 276.183594 125.78125 275.574219 125.15625 C 274.566406 124.128906 273.234375 123.253906 271.773438 122.210938 C 272.753906 125.191406 273.722656 127.355469 275.90625 128.472656 C 273.820312 131.121094 272.964844 134.683594 273.902344 138.1875 L 284.328125 177.039062 C 284.207031 177.191406 284.074219 177.359375 283.914062 177.542969 C 284.132812 177.664062 284.34375 177.78125 284.558594 177.898438 L 292.523438 207.589844 C 294.105469 213.488281 300.183594 216.992188 306.089844 215.414062 L 342.867188 205.570312 C 343.492188 206.878906 344.488281 208.277344 346.21875 210.699219 C 346.324219 210.464844 348.21875 206.269531 349.3125 203.847656 L 366.542969 199.234375 C 366.886719 199.875 367.328125 200.289062 368.265625 199.992188 C 368.417969 199.597656 369.214844 199.03125 368.605469 198.683594 L 412.015625 187.066406 C 412.339844 190.128906 412.667969 193.1875 413.1875 196.210938 L 407.847656 197.640625 C 404.824219 194.851562 404.136719 194.597656 400.789062 194.515625 C 400.871094 195.867188 402.886719 197.324219 400.683594 198.5625 C 400.945312 198.878906 401.230469 199.128906 401.535156 199.328125 L 308.457031 224.238281 C 299.976562 226.507812 291.300781 223.03125 286.574219 216.203125 C 286.964844 215.933594 287.429688 215.660156 287.96875 215.375 C 288.367188 215.171875 288.824219 215.003906 289.28125 214.929688 C 291.757812 214.578125 292.484375 213.378906 290.839844 210.617188 C 290.132812 213.402344 288.164062 214.464844 286.074219 215.441406 C 285.035156 213.78125 284.21875 211.941406 283.6875 209.953125 L 265.066406 140.550781 C 262.175781 129.785156 268.585938 118.699219 279.367188 115.8125 L 289.515625 113.097656 C 289.566406 113.214844 289.617188 113.332031 289.671875 113.449219 C 289.648438 113.46875 289.628906 113.484375 289.605469 113.503906 L 289.714844 113.546875 C 289.699219 113.515625 289.683594 113.484375 289.671875 113.449219 C 289.882812 113.273438 290.0625 113.09375 290.210938 112.910156 L 360.925781 93.988281 C 361.152344 94.03125 361.453125 94.019531 361.5625 93.914062 C 361.609375 93.871094 361.65625 93.824219 361.699219 93.78125 Z M 402.988281 198.941406 C 402.632812 198.496094 402.476562 197.921875 402.703125 197.113281 C 402.976562 196.179688 403.824219 196.40625 404.414062 196.75 C 405.238281 197.226562 405.441406 197.753906 405.386719 198.300781 Z M 486.898438 167.027344 C 488 169.730469 489.160156 172.40625 490.503906 175 C 490.34375 175.21875 490.183594 175.433594 490.023438 175.648438 L 430.300781 191.632812 C 430.46875 189.898438 433.390625 188.578125 431.226562 186.519531 C 431.230469 186.503906 431.230469 186.488281 431.234375 186.476562 L 431.15625 186.449219 C 431.179688 186.472656 431.203125 186.496094 431.226562 186.519531 C 430.964844 188.160156 429.984375 189.476562 429.242188 190.894531 C 429.0625 191.234375 428.992188 191.640625 429.226562 191.921875 L 414.929688 195.746094 C 414.742188 194.402344 414.523438 193.003906 414.285156 191.613281 C 414 189.941406 413.6875 188.273438 413.363281 186.707031 L 426.742188 183.125 C 426.835938 184.195312 427.160156 185.277344 427.519531 186.941406 C 428.839844 185.042969 429 183.9375 427.878906 182.910156 C 427.855469 182.886719 427.824219 182.863281 427.792969 182.84375 L 435.464844 180.792969 C 435.234375 182.40625 435.007812 184.023438 434.78125 185.640625 C 434.75 185.675781 434.714844 185.710938 434.683594 185.742188 L 434.761719 185.769531 L 434.78125 185.640625 C 436.238281 184.0625 436.867188 182.332031 436.683594 180.464844 L 466 172.621094 C 466.007812 173.015625 466.085938 173.347656 466.257812 173.511719 C 466.960938 174.183594 468.113281 174.570312 469.425781 174.3125 C 471.921875 173.839844 474.492188 173.746094 477.390625 173.449219 C 476.628906 172.03125 476.199219 170.6875 474.988281 170.214844 Z M 684.089844 7.507812 L 701.40625 2.875 C 712.191406 -0.0078125 723.289062 6.390625 726.175781 17.160156 L 744.796875 86.5625 C 747.6875 97.328125 741.277344 108.414062 730.496094 111.300781 L 720.828125 113.886719 C 720.664062 113.308594 720.953125 112.625 721.933594 111.746094 C 723.214844 110.566406 722.878906 108.863281 722.117188 107.632812 C 721.382812 106.394531 720.078125 107.128906 719.011719 107.507812 C 714.835938 109.007812 714.59375 110.316406 717.921875 113.753906 C 716.335938 113.171875 714.964844 114.710938 715.742188 115.21875 L 715.773438 115.238281 L 679.09375 125.054688 C 679.011719 124.441406 678.746094 123.820312 678.1875 123.175781 C 677.976562 122.921875 678.53125 122.222656 679.023438 122.378906 C 680.980469 123.023438 679.988281 121.902344 679.601562 121.339844 C 679.164062 120.691406 678.363281 119.660156 677.789062 120.269531 C 677.097656 120.980469 676.449219 122.730469 676.84375 123.320312 C 677.382812 124.109375 677.578125 124.8125 677.570312 125.464844 L 666.613281 128.394531 C 667.632812 126.277344 668.09375 124.015625 667.007812 121.378906 C 667.003906 123.144531 666.597656 124.808594 666.125 126.457031 C 665.90625 127.207031 665.679688 127.953125 665.464844 128.703125 L 608.519531 143.941406 C 607.96875 143.457031 607.160156 143.265625 606.390625 143.4375 C 605.75 143.585938 604.734375 143.964844 604.964844 144.890625 L 492.300781 175.039062 C 492.195312 174.882812 492.089844 174.722656 491.984375 174.5625 C 492.132812 174.015625 492.292969 173.292969 492.503906 172.324219 C 492.136719 172.820312 491.785156 173.285156 491.453125 173.730469 C 490.070312 171.507812 488.902344 169.167969 487.851562 166.773438 L 518 158.707031 C 517.304688 160.4375 515.917969 161.582031 514.625 162.929688 C 512.535156 165.089844 511.160156 165.121094 509.984375 162.066406 C 508.09375 164.34375 509.742188 166.671875 510.574219 167.8125 C 511.753906 169.457031 513.1875 167.164062 514.5 166.378906 C 515.886719 165.507812 516.8125 163.371094 519.140625 164.757812 C 519.878906 165.203125 520.679688 164.367188 520.796875 163.476562 C 521.085938 161.175781 523.519531 159.066406 525.886719 159.175781 C 525.773438 158.339844 525.667969 157.511719 525.558594 156.683594 L 526.867188 156.332031 C 527.382812 157.019531 527.710938 157.878906 528.445312 157.796875 C 529.480469 157.660156 530.390625 156.34375 531.316406 155.523438 C 532.015625 154.933594 533.71875 155.65625 533.957031 154.433594 L 697.488281 110.675781 C 697.597656 110.65625 697.710938 110.628906 697.828125 110.59375 C 697.878906 110.578125 697.925781 110.5625 697.972656 110.546875 L 723.066406 103.828125 L 723.066406 103.851562 C 723.058594 104.039062 723.0625 104.222656 723.074219 104.410156 C 723.074219 104.460938 723.078125 104.511719 723.082031 104.558594 C 723.085938 104.578125 723.085938 104.59375 723.085938 104.609375 C 723.085938 104.625 723.082031 104.671875 723.09375 104.660156 C 723.222656 104.527344 723.335938 104.378906 723.457031 104.234375 C 723.582031 104.09375 723.703125 103.949219 723.824219 103.808594 L 724.027344 103.574219 L 728.128906 102.476562 C 734.035156 100.894531 737.542969 94.824219 735.960938 88.925781 L 717.339844 19.523438 C 715.757812 13.625 709.679688 10.121094 703.773438 11.699219 L 684.230469 16.929688 C 683.941406 16.589844 683.503906 16.308594 682.851562 16.125 L 682.71875 16.257812 C 682.476562 16.707031 682.347656 17.097656 682.3125 17.441406 L 675.0625 19.382812 C 674.738281 19.152344 674.398438 18.9375 674.046875 18.738281 C 674.046875 18.734375 674.050781 18.730469 674.058594 18.726562 L 674.050781 18.726562 L 674.054688 18.726562 L 673.945312 18.683594 C 674.382812 18.351562 675.070312 18.070312 675.195312 17.65625 C 675.46875 16.722656 674.554688 16.871094 674.105469 16.871094 C 672.847656 16.898438 672.113281 16.734375 671.988281 15.117188 C 671.9375 14.488281 671.0625 13.167969 669.480469 12.96875 C 669.960938 15.992188 669.519531 19.308594 674.03125 18.730469 L 674.046875 18.738281 C 673.734375 19.054688 673.566406 19.417969 673.472656 19.808594 L 651.183594 25.773438 C 651.4375 25.183594 651.578125 24.617188 651.652344 24.058594 C 651.796875 22.996094 651.703125 21.980469 651.714844 20.976562 C 650.675781 22.347656 650.421875 23.917969 650.265625 26.019531 L 645.351562 27.335938 C 643.636719 26.203125 641.78125 25.089844 639.992188 23.601562 C 640.460938 25.433594 640.976562 26.015625 641.628906 26.507812 C 642.214844 26.960938 642.796875 27.40625 643.34375 27.871094 L 585.042969 43.472656 C 585.082031 42.738281 585.011719 41.96875 584.898438 41.1875 C 584.679688 42.023438 584.460938 42.855469 584.246094 43.6875 L 574.308594 46.34375 C 573.730469 43.511719 572.777344 40.722656 572.953125 37.777344 C 572.953125 37.640625 572.792969 37.496094 572.589844 37.347656 L 587.582031 33.335938 C 587.871094 33.5 588.171875 33.664062 588.464844 33.832031 L 588.425781 33.84375 C 588.417969 33.894531 588.410156 33.941406 588.398438 33.992188 C 586.191406 35.035156 583.164062 33.664062 581.46875 36.257812 L 581.539062 36.164062 C 584.738281 38.207031 587.867188 37.203125 588.398438 33.992188 C 588.460938 33.960938 588.519531 33.929688 588.582031 33.898438 L 588.433594 33.847656 L 588.582031 33.898438 C 588.542969 33.875 588.503906 33.855469 588.464844 33.832031 C 589.984375 33.328125 590.714844 33.082031 590.585938 32.53125 L 631.886719 21.480469 C 632.128906 21.660156 632.359375 21.859375 632.59375 22.054688 C 633.3125 22.648438 634.066406 23.222656 635.277344 23.285156 C 634.195312 22.226562 633.527344 21.574219 632.988281 21.183594 L 644.929688 17.988281 C 644.761719 18.269531 644.691406 18.601562 644.789062 18.960938 C 644.988281 19.703125 645.628906 20.039062 646.4375 19.894531 C 647.050781 19.320312 647.636719 18.632812 647.441406 17.816406 C 647.398438 17.632812 647.320312 17.488281 647.214844 17.378906 L 673.597656 10.316406 C 672.976562 10.726562 672.171875 10.945312 671.171875 10.980469 C 672.210938 12.710938 672.972656 14.230469 674.75 14.804688 C 675.261719 14.046875 673.394531 13.398438 674.578125 12.84375 C 675.109375 12.582031 676.191406 12.984375 676.785156 13.425781 C 678.019531 14.386719 681.097656 16 682.71875 16.261719 L 682.847656 16.128906 C 683.777344 14.972656 684.734375 13.832031 685.578125 12.625 C 685.996094 12.058594 686.15625 11.324219 685.113281 11.078125 C 683.382812 10.65625 683.382812 10.65625 683.820312 8.816406 C 683.949219 8.230469 684.042969 7.8125 684.089844 7.507812 Z M 718.445312 114.523438 C 718.363281 114.402344 718.265625 114.285156 718.152344 114.167969 C 718.371094 114.242188 718.574219 114.332031 718.769531 114.4375 Z M 658.441406 126.589844 C 657.4375 128.046875 655.5 128.832031 654.929688 131.390625 C 657.589844 130.246094 657.472656 128.058594 658.46875 126.554688 Z M 396.6875 199.390625 C 396.097656 199.746094 395.890625 201.296875 394.785156 199.929688 C 393.769531 198.65625 394.238281 197.710938 395.316406 196.796875 C 396.417969 197.417969 396.230469 198.566406 396.6875 199.390625 Z M 718.125 114.121094 L 718.128906 114.125 L 718.121094 114.117188 Z M 567.792969 152.898438 C 566.042969 152.34375 565.910156 150.605469 566.839844 146.246094 C 567.40625 148.207031 567.414062 150.234375 568.351562 151.808594 C 568.359375 151.789062 568.367188 151.773438 568.375 151.757812 C 569.1875 150.210938 570.121094 151.53125 570.972656 151.664062 C 571.5 151.742188 572.277344 151.847656 571.894531 152.675781 C 571.449219 153.613281 570.570312 153.222656 569.796875 153.1875 C 569.015625 153.15625 568.257812 153.382812 567.46875 153.496094 L 567.4375 153.550781 C 567.554688 153.335938 567.675781 153.117188 567.792969 152.898438 Z M 718.039062 113.953125 C 718.035156 113.953125 718.035156 113.949219 718.03125 113.945312 C 718.03125 113.945312 718.03125 113.941406 718.027344 113.9375 Z M 717.992188 113.875 C 717.996094 113.878906 718 113.882812 718 113.882812 C 718 113.886719 718.003906 113.890625 718.003906 113.894531 C 718 113.886719 718 113.882812 717.992188 113.875 Z M 717.976562 113.84375 L 717.976562 113.847656 L 717.972656 113.835938 Z M 717.949219 113.792969 L 717.953125 113.796875 L 717.945312 113.789062 Z M 400.683594 198.5625 C 400.65625 198.578125 400.628906 198.59375 400.601562 198.605469 L 400.652344 198.523438 C 400.660156 198.535156 400.671875 198.550781 400.683594 198.5625 Z M 396.6875 199.390625 C 396.714844 199.375 396.742188 199.363281 396.773438 199.351562 L 396.730469 199.460938 C 396.714844 199.4375 396.703125 199.414062 396.6875 199.390625 Z M 693.738281 118.667969 C 693.933594 119.386719 693.878906 120.003906 693.160156 120.101562 C 692.359375 120.242188 691.503906 120.109375 691.226562 119.167969 C 691.058594 118.539062 691.496094 118.109375 692.125 117.9375 C 692.894531 117.757812 693.421875 118.101562 693.738281 118.667969 Z M 523 157.367188 C 522.453125 157.75 522.003906 157.890625 521.65625 157.726562 Z M 284.664062 204.722656 C 285.207031 204.527344 285.503906 204.304688 285.753906 204.355469 C 287.050781 204.65625 287.925781 202.054688 288.984375 203.515625 C 289.894531 204.78125 290.421875 206.742188 290.214844 208.28125 C 289.949219 210.046875 287.589844 209.769531 286.257812 210.582031 C 285.046875 211.3125 285.742188 209.453125 285.101562 209.027344 C 284.75 208.785156 284.667969 208.378906 285.4375 208.148438 C 287.226562 207.621094 287.203125 207.53125 285.933594 206.078125 C 285.5625 205.675781 285.199219 205.296875 284.664062 204.722656 Z M 575.117188 107.878906 C 574.976562 113.050781 571.648438 117.480469 566.957031 119.914062 L 567.964844 123.667969 C 574.773438 122.121094 580.527344 112.257812 579.234375 106.917969 C 578.921875 105.753906 577.929688 104.90625 576.699219 105.238281 C 575.339844 105.601562 575.210938 106.675781 575.117188 107.878906 Z M 604.359375 88.222656 L 603.78125 86.0625 C 607.195312 84.800781 607.074219 82.542969 606.222656 79.371094 L 604.125 71.542969 C 603.253906 68.304688 602.125 66.945312 598.570312 66.644531 L 597.546875 62.828125 L 597.871094 62.742188 C 602.085938 61.613281 606.457031 60.304688 610.847656 61.140625 C 613.632812 61.695312 615.855469 62.886719 617.507812 64.710938 C 617.253906 65.066406 616.917969 65.332031 616.410156 65.429688 C 615.820312 65.539062 615.25 68.65625 615.34375 71.210938 C 616.550781 69.59375 617.785156 68.066406 618.792969 66.4375 C 619.425781 67.480469 619.929688 68.664062 620.304688 69.984375 C 622.429688 77.394531 618.375 81.949219 612.183594 85.269531 L 612.21875 85.398438 C 618.210938 84.695312 624.167969 84.90625 626.136719 91.730469 L 627.667969 97.425781 C 627.824219 98.007812 627.976562 99.355469 628.816406 99.128906 C 629.855469 98.851562 629.546875 96.921875 631.097656 96.507812 C 631.941406 96.28125 633.238281 96.972656 633.484375 97.878906 C 633.984375 99.757812 632.492188 102.722656 631.363281 104.207031 C 629.644531 106.605469 627.449219 107.75 624.664062 108.496094 C 621.878906 109.242188 619.160156 109.203125 616.613281 107.734375 C 616.253906 107.523438 615.917969 107.292969 615.613281 107.046875 C 615.394531 103.710938 615.582031 100.445312 613.542969 97.367188 C 612.179688 99.800781 613.492188 102.273438 613.523438 104.625 C 612.738281 103.300781 612.238281 101.792969 611.816406 100.210938 L 610.636719 95.808594 C 610.371094 94.832031 610.082031 93.789062 609.675781 92.851562 C 611.671875 93.816406 613.652344 94.800781 615.453125 96.128906 C 615.839844 96.410156 616.441406 96.703125 616.636719 96.265625 C 617.230469 94.839844 618.800781 93.679688 618.316406 91.96875 C 617.898438 90.503906 617.171875 89.382812 615.105469 89.410156 C 611.5 89.464844 607.859375 89.394531 604.359375 88.222656 Z M 545.632812 120.0625 C 541.832031 116.582031 539.089844 111.570312 537.523438 105.734375 C 533.515625 90.785156 539.089844 77.917969 551.539062 74.097656 L 552.546875 77.851562 C 549.609375 79.332031 549.285156 82.261719 550.015625 84.980469 L 558.246094 115.65625 C 558.972656 118.375 560.722656 120.75 564.039062 120.695312 L 565.046875 124.449219 C 558.34375 126.113281 552.664062 125.023438 548.160156 122.039062 C 548.488281 121.535156 548.515625 120.863281 547.4375 120.203125 C 546.78125 119.804688 546.34375 119.058594 545.714844 118.390625 C 545.660156 118.914062 545.707031 119.539062 545.632812 120.0625 Z M 372.429688 175.433594 C 371.433594 175.960938 370.363281 176.433594 369.222656 176.851562 L 368.21875 173.097656 C 370.96875 171.179688 370.707031 169.171875 370.273438 167.554688 L 361.277344 134.03125 C 360.84375 132.414062 360.0625 130.539062 356.722656 130.253906 L 355.714844 126.503906 C 369.070312 124.179688 378.203125 132.484375 382.050781 144.347656 C 381.375 144.5 380.660156 144.964844 379.855469 145.84375 C 380.878906 145.714844 381.699219 145.613281 382.410156 145.523438 C 382.484375 145.773438 382.554688 146.027344 382.621094 146.285156 C 384.234375 152.285156 384.34375 158.265625 382.648438 163.4375 C 382.375 163.28125 382.167969 163.1875 382.058594 163.171875 C 381.738281 163.136719 381.242188 163.054688 381.097656 163.238281 C 379.644531 165.105469 378.121094 166.972656 378.273438 169.585938 C 378.664062 169.5625 378.945312 169.703125 379.171875 169.929688 C 377.988281 171.414062 376.570312 172.753906 374.902344 173.925781 C 374.890625 173.820312 374.863281 173.714844 374.824219 173.609375 C 373.953125 171.429688 374.820312 169.164062 374.179688 166.945312 C 373.84375 165.792969 374.578125 164.351562 372.71875 163.464844 C 371.847656 165.011719 370.515625 166.253906 371.625 167.988281 C 372.808594 169.824219 372.425781 171.859375 372.519531 173.820312 C 372.550781 174.324219 372.109375 175.058594 372.429688 175.433594 Z M 338.195312 150.441406 C 337.652344 140.320312 341.984375 131.238281 352.800781 127.28125 L 353.808594 131.035156 C 351.058594 132.949219 351.320312 134.960938 351.753906 136.578125 L 360.746094 170.101562 C 361.179688 171.71875 361.960938 173.589844 365.300781 173.878906 L 366.308594 177.628906 C 358.210938 179.039062 351.664062 176.539062 346.90625 171.703125 C 346.835938 171.53125 346.722656 171.394531 346.53125 171.316406 C 345.945312 170.6875 345.382812 170.023438 344.851562 169.328125 C 347.722656 167.589844 348.65625 165.554688 347.972656 162.488281 C 347.300781 159.441406 345.894531 156.519531 346.503906 153.105469 C 346.757812 151.554688 344.332031 151.128906 342.917969 150.574219 C 342.496094 150.425781 341.871094 150.925781 342.035156 151.359375 C 342.453125 152.484375 342.964844 153.683594 344.566406 153.5 C 341.925781 158.847656 343.933594 163.757812 344.59375 168.984375 C 342.265625 165.832031 340.523438 162.027344 339.402344 157.847656 C 338.941406 156.140625 338.605469 154.429688 338.398438 152.742188 C 339.316406 152.289062 340.046875 151.679688 340.007812 150.554688 C 339.972656 149.863281 339.09375 150.300781 338.195312 150.441406 Z M 493.261719 127.871094 C 494.597656 137.023438 488.261719 144.800781 479.382812 147.371094 L 478.375 143.617188 C 481.226562 141.816406 483.5 139.679688 482.675781 136.085938 C 481.710938 131.976562 476.464844 131.574219 472.988281 131.046875 C 463.90625 129.804688 455.332031 128.144531 452.609375 117.984375 C 449.96875 108.148438 455.464844 100.15625 464.902344 97.285156 L 465.910156 101.035156 C 463.671875 102.539062 462.019531 104.921875 462.734375 107.574219 C 463.28125 109.625 464.425781 110.964844 467.457031 111.902344 C 467.351562 112.5 467.476562 113.222656 467.414062 113.753906 C 467.238281 115.136719 468.679688 114.824219 469.425781 114.863281 C 471.507812 114.976562 473.582031 114.898438 475.660156 114.917969 C 474.046875 113.8125 471.851562 113.777344 470.367188 112.582031 C 471.519531 112.789062 472.839844 112.96875 474.363281 113.132812 C 486.632812 114.421875 490.976562 119.535156 492.683594 125.273438 C 490.59375 125.117188 489.039062 126.144531 488.203125 128.175781 C 487.53125 129.835938 489.789062 130.355469 490.886719 131.6875 C 490.101562 129.375 491.882812 128.734375 493.261719 127.871094 Z M 458.371094 133.070312 C 458.507812 133 458.660156 132.941406 458.832031 132.894531 C 460.128906 132.546875 461.3125 133.339844 461.800781 134.390625 C 464.097656 139.324219 469.445312 144.757812 475.460938 144.398438 L 476.46875 148.152344 C 475.382812 148.414062 474.4375 148.558594 473.605469 148.621094 C 473.726562 148.367188 473.894531 148.148438 474.125 147.976562 C 473.621094 148.113281 473.257812 148.351562 472.980469 148.652344 C 469.882812 148.75 468.394531 147.746094 466.625 148.21875 C 464.550781 148.773438 465.316406 150.859375 463.699219 151.292969 C 461.6875 151.828125 461.046875 149.433594 460.960938 149.113281 L 458.164062 138.6875 C 458.945312 136.886719 458.667969 134.976562 458.371094 133.070312 Z M 688.984375 85.5 C 688.835938 87.078125 689.589844 88.464844 690.226562 89.910156 L 689.59375 90.078125 C 689.332031 90.148438 687.15625 90.59375 686.65625 88.714844 C 686.414062 87.808594 686.839844 87.070312 687.613281 86.585938 C 688.289062 86.15625 688.722656 85.828125 688.984375 85.5 Z M 303.820312 141.429688 L 319.039062 137.355469 L 330.082031 178.515625 C 330.726562 180.910156 330.765625 181.316406 333.226562 181.421875 C 334.136719 181.453125 334.875 181.878906 335.117188 182.785156 C 335.621094 184.664062 333.519531 185.363281 333.257812 185.433594 L 314.921875 190.339844 C 314.664062 190.410156 312.488281 190.851562 311.984375 188.976562 C 311.742188 188.070312 312.167969 187.332031 312.941406 186.847656 C 315.019531 185.527344 314.851562 185.15625 314.207031 182.761719 L 308.480469 161.414062 C 308.863281 161.316406 309.28125 161.15625 309.738281 160.933594 C 309.195312 160.761719 308.699219 160.601562 308.222656 160.449219 L 303.328125 142.21875 C 303.425781 141.988281 303.554688 141.769531 303.722656 141.5625 C 303.761719 141.515625 303.792969 141.472656 303.820312 141.429688 Z M 597.707031 75.066406 C 597.714844 75.132812 597.722656 75.203125 597.742188 75.269531 C 597.765625 75.355469 597.796875 75.433594 597.824219 75.511719 L 605.675781 104.765625 C 606.316406 107.160156 606.359375 107.566406 608.816406 107.671875 C 609.730469 107.707031 610.46875 108.132812 610.707031 109.039062 C 611.003906 110.136719 610.40625 110.832031 609.804688 111.234375 C 609.507812 111.015625 609.164062 110.769531 608.777344 110.492188 C 608.980469 110.867188 609.097656 111.226562 609.160156 111.578125 C 609.011719 111.636719 608.898438 111.671875 608.847656 111.6875 L 590.515625 116.59375 C 590.253906 116.664062 588.082031 117.105469 587.578125 115.226562 C 587.335938 114.324219 587.757812 113.582031 588.53125 113.097656 C 590.609375 111.78125 590.441406 111.410156 589.800781 109.015625 L 580.703125 75.105469 C 580.058594 72.710938 580.019531 72.304688 577.558594 72.199219 C 576.648438 72.167969 575.910156 71.738281 575.667969 70.835938 C 575.160156 68.957031 577.265625 68.253906 577.527344 68.1875 L 594.632812 63.609375 Z M 407.019531 145.320312 C 405.695312 146.546875 405.035156 149.101562 405.425781 152.222656 C 405.902344 151.953125 406.148438 151.886719 406.273438 151.734375 C 407.136719 150.585938 406.933594 148.753906 407.59375 147.460938 L 410.175781 157.082031 C 410.816406 159.476562 410.859375 159.882812 413.316406 159.988281 C 414.226562 160.019531 414.96875 160.449219 415.210938 161.355469 C 415.714844 163.230469 413.609375 163.933594 413.351562 164 L 395.011719 168.910156 C 394.753906 168.976562 392.582031 169.421875 392.078125 167.542969 C 391.835938 166.636719 392.261719 165.898438 393.035156 165.414062 C 395.113281 164.097656 394.941406 163.726562 394.300781 161.332031 L 386.160156 130.992188 C 387.234375 130.800781 386.445312 128.820312 387.757812 128.960938 C 387.679688 128.671875 387.695312 128.1875 387.523438 128.089844 C 387.164062 127.902344 386.328125 127.8125 386.296875 127.871094 C 386.128906 128.367188 385.890625 128.707031 385.609375 128.945312 L 385.203125 127.421875 C 384.558594 125.027344 384.519531 124.621094 382.0625 124.515625 C 381.148438 124.480469 380.410156 124.054688 380.167969 123.148438 C 379.664062 121.273438 381.765625 120.570312 382.027344 120.5 L 399.132812 115.925781 Z M 673.816406 94.300781 L 659.328125 98.175781 L 658.320312 94.425781 C 663.394531 92.371094 666.460938 87.738281 666.820312 82.09375 C 667.015625 81 667.125 79.859375 668.289062 79.550781 C 670.363281 78.992188 670.691406 80.988281 670.761719 81.246094 L 674.101562 93.703125 C 674.007812 93.902344 673.910156 94.101562 673.816406 94.300781 Z M 624.871094 56 C 625.394531 55.421875 626.167969 55.167969 626.320312 55.128906 L 643.425781 50.550781 L 656.414062 98.957031 L 650.253906 100.605469 C 649.089844 98.625 647.488281 99.0625 645.839844 98.890625 C 646.3125 100.164062 646.957031 100.683594 647.722656 100.855469 C 648.191406 100.960938 648.707031 100.9375 649.25 100.875 L 639.308594 103.535156 C 639.046875 103.605469 636.875 104.046875 636.371094 102.171875 C 636.128906 101.265625 636.554688 100.527344 637.328125 100.042969 C 638.570312 99.253906 639.007812 98.804688 639.023438 98.058594 C 640.734375 97.75 641.894531 98.523438 642.445312 100.71875 C 643.273438 99.011719 643.152344 97.660156 641.746094 96.863281 C 639.472656 95.585938 638.246094 93.855469 638.265625 91.175781 C 638.28125 90.429688 638.175781 89.429688 637.171875 88.957031 C 637.0625 89.21875 636.984375 89.472656 636.921875 89.726562 L 629.496094 62.046875 C 628.851562 59.652344 628.816406 59.246094 626.351562 59.144531 C 625.734375 59.121094 625.199219 58.917969 624.839844 58.507812 C 625.609375 57.765625 625.0625 56.863281 624.871094 56 Z M 525.136719 129.722656 C 529.253906 127.410156 531.71875 123.1875 532.039062 118.160156 C 532.230469 117.066406 532.34375 115.929688 533.507812 115.617188 C 535.582031 115.0625 535.910156 117.054688 535.976562 117.3125 L 537.097656 121.484375 L 537.058594 121.472656 C 537.121094 122.050781 537.265625 122.507812 537.46875 122.871094 L 539.449219 130.257812 L 536.023438 131.175781 C 536.753906 130.878906 537.417969 130.050781 537.789062 128.511719 C 533.792969 132.71875 535.003906 128.894531 534.65625 127.152344 C 533.984375 128.589844 532.699219 129.996094 534.285156 130.96875 C 534.710938 131.230469 535.167969 131.34375 535.617188 131.28125 L 524.546875 134.246094 L 523.945312 132 C 524.222656 131.203125 524.675781 130.476562 525.136719 129.722656 Z M 499.40625 115.605469 L 494.710938 98.117188 C 494.070312 95.71875 494.03125 95.316406 491.570312 95.210938 C 490.660156 95.175781 489.921875 94.75 489.675781 93.84375 C 489.171875 91.96875 491.277344 91.265625 491.535156 91.195312 L 508.644531 86.617188 L 521.632812 135.027344 L 504.523438 139.601562 C 504.265625 139.671875 502.09375 140.117188 501.589844 138.238281 C 501.34375 137.332031 501.773438 136.59375 502.546875 136.109375 C 504.621094 134.792969 504.453125 134.421875 503.808594 132.027344 L 499.910156 117.492188 C 500.167969 117.382812 500.425781 117.242188 500.664062 117.15625 C 502.289062 116.554688 504.140625 117.0625 505.742188 116.105469 C 506.257812 115.800781 506.117188 117.847656 506.996094 116.871094 C 507.699219 116.109375 506.910156 115.390625 506.097656 115.03125 C 504.550781 114.324219 503.589844 113.144531 503.121094 111.3125 C 502.339844 113.097656 502.683594 115.445312 499.871094 115.527344 C 499.726562 115.53125 499.566406 115.558594 499.40625 115.605469 Z M 699.101562 57.191406 C 697.828125 58.277344 697.128906 59.734375 696.703125 61.34375 C 697.589844 60.742188 698.34375 60.0625 698.921875 59.269531 C 699.113281 59.003906 699.285156 58.730469 699.4375 58.4375 L 703.402344 73.21875 C 703.027344 73.574219 702.757812 74.007812 702.71875 74.621094 C 702.683594 75.171875 703.28125 75.503906 704.015625 75.507812 L 704.433594 77.066406 C 703.15625 78.546875 703.21875 80.707031 702.398438 82.347656 C 702.066406 83.058594 702.65625 83.042969 703.511719 83.125 C 704.992188 83.25 705.34375 81.582031 706.03125 80.847656 C 706.417969 81.035156 706.960938 81.113281 707.796875 81.15625 C 708.3125 82.074219 707.929688 83.765625 708.917969 84.699219 C 708.484375 85 708.039062 85.144531 707.925781 85.171875 L 695.933594 88.382812 C 695.507812 88.175781 695.113281 87.839844 694.679688 87.660156 C 694.671875 87.625 694.664062 87.585938 694.664062 87.550781 L 694.613281 87.632812 C 694.636719 87.644531 694.65625 87.652344 694.679688 87.660156 C 694.738281 88.011719 694.875 88.324219 695.042969 88.621094 L 690.554688 89.820312 C 690.644531 87.242188 690.957031 87.246094 694.570312 87.539062 C 694.582031 87.570312 694.59375 87.601562 694.605469 87.632812 L 694.65625 87.546875 L 694.570312 87.539062 C 693.386719 84.730469 695.609375 83.039062 696.578125 80.769531 C 697.78125 81.882812 695.582031 82.828125 696.820312 83.882812 C 697.261719 83.214844 697.742188 82.703125 698.003906 82.085938 C 698.582031 80.6875 701.402344 79.644531 699.476562 77.890625 C 697.898438 76.449219 695.742188 77.382812 694.089844 78.6875 C 693.914062 78.828125 693.820312 79.09375 693.628906 79.191406 C 692.636719 79.648438 691.816406 79.175781 691.277344 78.410156 C 690.710938 77.628906 689.222656 76.355469 689.785156 76.132812 C 692.355469 75.0625 689.9375 73.414062 690.621094 72.0625 C 689.191406 73.632812 687.722656 73.3125 686.242188 72.679688 L 677.835938 41.34375 L 681.332031 40.40625 C 682.1875 40.726562 682.035156 41.675781 681.730469 42.957031 C 681.574219 43.621094 681.417969 44.285156 681.269531 44.96875 C 681.101562 45.753906 681.339844 46.382812 682.175781 46.566406 C 682.933594 46.722656 683.09375 46.082031 683.203125 45.503906 C 683.492188 43.566406 683.941406 41.632812 683.976562 39.699219 L 693.710938 37.09375 Z M 621.484375 105.558594 C 622.726562 104.355469 619.890625 102.847656 622 101.75 C 622.449219 101.535156 623.078125 101.558594 623.148438 102.09375 C 623.332031 103.492188 623.316406 104.871094 621.484375 105.558594 Z M 466.097656 142.167969 C 466.359375 146.160156 460.796875 143.535156 461.089844 147.378906 C 460.394531 145.414062 462.675781 143.441406 460.820312 141.667969 C 460.75 141.589844 461.011719 140.96875 461.261719 140.832031 C 461.976562 140.472656 462.03125 141.125 462.40625 141.550781 C 464.105469 143.535156 464.160156 143.472656 466.097656 142.167969 Z M 400.285156 160.75 C 399.984375 161.601562 400.40625 162.644531 399.214844 162.773438 C 398.605469 162.839844 398.097656 162.46875 398.023438 161.835938 C 397.878906 160.933594 398.359375 160.296875 399.203125 160.046875 C 399.890625 159.816406 400.195312 160.242188 400.285156 160.75 Z M 381.769531 165.6875 C 381.609375 166.039062 381.441406 166.386719 381.261719 166.726562 C 381.34375 166.332031 381.503906 165.980469 381.769531 165.6875 Z M 686.675781 74.296875 C 686.8125 74.390625 686.949219 74.484375 687.082031 74.585938 C 689.945312 76.734375 691.457031 80.683594 689.828125 83.222656 C 689.597656 83.578125 689.421875 83.921875 689.289062 84.257812 C 689.234375 83.808594 689.078125 83.257812 688.878906 82.503906 Z M 320.253906 180.972656 C 318.351562 178.851562 319.019531 177.523438 321.054688 176.503906 C 322.085938 175.988281 323.3125 176.042969 323.847656 176.878906 C 324.644531 178.074219 323.21875 178.265625 322.488281 178.652344 C 321.519531 179.125 320.890625 179.894531 320.253906 180.972656 Z M 544.613281 115.84375 C 543.574219 115.738281 542.511719 115.273438 541.839844 114.390625 C 541.609375 114.066406 541.710938 112.566406 542.460938 112.75 C 543.546875 113.039062 544.53125 113.933594 545.414062 114.710938 C 545.703125 114.972656 545.175781 115.523438 544.613281 115.84375 Z M 477.796875 117.5 C 480.507812 119.523438 480.542969 123.554688 483.199219 125.113281 C 486.144531 126.859375 484.570312 128.1875 483.773438 130.984375 C 482.121094 125.617188 479.371094 121.859375 477.796875 117.5 Z M 653.21875 75.398438 C 656.128906 75.382812 658.039062 77.574219 659.28125 79.878906 C 659.902344 80.890625 660.570312 81.824219 661.929688 81.460938 C 663.9375 80.921875 662.988281 78.679688 662.851562 78.160156 L 659.097656 64.183594 C 658.960938 63.664062 658.660156 61.25 656.648438 61.785156 C 655.289062 62.148438 655.179688 63.289062 655.148438 64.476562 C 655.226562 67.09375 654.671875 69.945312 652.140625 71.386719 Z M 521.578125 112.445312 C 520.691406 111.835938 519.648438 111.457031 518.433594 111.464844 L 517.359375 107.453125 C 519.890625 106.011719 520.445312 103.160156 520.367188 100.542969 C 520.394531 99.359375 520.507812 98.21875 521.867188 97.855469 C 523.875 97.316406 524.175781 99.734375 524.316406 100.25 L 528.066406 114.230469 C 528.207031 114.746094 529.15625 116.988281 527.144531 117.527344 C 525.785156 117.890625 525.117188 116.960938 524.5 115.945312 C 524.136719 115.277344 523.722656 114.617188 523.238281 114.019531 C 523.292969 113.699219 523.140625 113.34375 522.585938 112.917969 C 522.203125 112.617188 521.871094 112.476562 521.578125 112.445312 Z M 550.484375 106.171875 C 549.933594 107.5625 549.65625 108.257812 549.222656 108.832031 C 548.789062 109.40625 548.203125 109.859375 547.027344 110.765625 C 545.273438 107.375 548.703125 107.6875 550.484375 106.171875 Z M 277.542969 180.695312 C 277.566406 177.84375 279.136719 176.324219 281.21875 176.101562 C 282.820312 175.9375 282.671875 178.316406 282.5 179.105469 C 281.808594 182.46875 279.242188 179.832031 277.542969 180.695312 Z M 421.449219 139.960938 C 418.957031 142.101562 415.605469 143.5625 410.070312 145.042969 L 409.0625 141.289062 C 412.695312 139.554688 412.179688 136.847656 411.328125 133.675781 L 408.707031 123.90625 C 407.925781 120.992188 406.628906 118.496094 403.054688 118.898438 L 402.046875 115.144531 C 408.203125 113.496094 412.007812 113.171875 415.523438 114.105469 C 421.082031 115.667969 424.105469 119.4375 425.5625 124.875 C 426.875 129.761719 426.414062 134.117188 423.375 137.949219 C 423.40625 137.5625 423.386719 137.152344 423.394531 136.742188 C 423.433594 133.695312 421.828125 130.992188 421.730469 127.792969 C 420.496094 127.980469 420.160156 128.761719 419.875 129.484375 C 418.785156 132.261719 420.144531 134.480469 421.53125 136.714844 C 421.855469 137.222656 422.792969 137.953125 421.507812 138.585938 C 421.148438 138.753906 420.046875 137.230469 420.441406 138.964844 C 420.558594 139.519531 420.9375 139.910156 421.449219 139.960938 Z M 692.453125 67.480469 C 692.636719 68.785156 691.457031 68.617188 690.902344 69.054688 C 690.261719 69.539062 689.546875 69.394531 689.257812 68.578125 C 688.960938 67.738281 689.59375 67.402344 690.296875 67.164062 C 691.09375 66.902344 691.832031 66.875 692.453125 67.480469 Z M 640.941406 73.449219 C 641.425781 73.558594 641.992188 73.625 642.519531 73.816406 C 643.316406 74.128906 644.089844 74.785156 643.667969 75.613281 C 642.960938 77.070312 644.421875 78.878906 642.875 80.03125 C 642.234375 80.488281 641.320312 80.542969 640.597656 80.066406 C 639.632812 79.394531 640.664062 78.976562 640.863281 78.394531 C 641.234375 77.292969 641.046875 76.148438 640.527344 75.089844 C 640.183594 74.441406 639.863281 73.859375 640.941406 73.449219 Z M 355.4375 153.9375 C 355.148438 155.101562 355.871094 156.71875 353.960938 156.867188 C 352.859375 156.972656 351.558594 154.90625 352.320312 154.242188 C 353.417969 155.46875 354.320312 154.792969 355.4375 153.9375 Z M 392.035156 138.949219 C 393.160156 141.179688 393.625 142.824219 393.632812 144.546875 C 393.644531 145.117188 393.738281 146.09375 392.726562 146.054688 C 391.976562 146.015625 391.28125 145.367188 391.589844 144.660156 C 392.300781 143.039062 391.359375 141.304688 392.035156 138.949219 Z M 686.371094 62.453125 C 687.511719 61.285156 687.90625 59.386719 689.46875 61.121094 C 690.570312 62.382812 691.875 63.777344 690.296875 65.632812 C 689.882812 66.125 689.398438 66.375 688.878906 65.847656 C 688.589844 65.566406 688.191406 65.074219 688.277344 64.761719 C 688.84375 62.53125 688.875 62.546875 686.371094 62.453125 Z M 372.863281 147.394531 C 371.800781 148.054688 370.570312 148.445312 369.644531 149.0625 C 368.71875 149.683594 368.097656 150.53125 368.253906 152.105469 C 367.109375 148.550781 368.417969 147.160156 372.863281 147.394531 Z M 540.996094 105.386719 C 540.4375 104.558594 540.234375 103.726562 540.253906 102.796875 C 540.277344 101.867188 540.523438 100.84375 540.871094 99.625 C 541.703125 102.011719 541.289062 103.691406 540.996094 105.386719 Z M 547.800781 99.996094 C 547.722656 99.085938 547.652344 98.195312 547.574219 97.285156 C 547.53125 96.503906 547.148438 95.605469 547.746094 94.992188 C 548.410156 94.359375 548.976562 95.140625 549.519531 95.472656 C 550.449219 96.011719 551.28125 96.625 550.785156 97.882812 C 550.414062 98.816406 550.023438 99.757812 549.519531 100.632812 C 549.347656 100.96875 548.816406 101.300781 548.484375 101.296875 C 547.640625 101.257812 547.910156 100.492188 547.800781 99.996094 Z M 378.632812 145.972656 C 377.292969 146.261719 376.417969 148.207031 374.777344 147.03125 C 374.355469 146.707031 374.703125 145.941406 375.082031 145.476562 C 376.460938 143.875 377.40625 145.796875 378.632812 145.972656 Z M 588.730469 80.695312 C 589.675781 83.238281 591.191406 85.082031 594.148438 85.171875 C 595.371094 85.203125 596.335938 85.6875 595.941406 86.964844 C 595.539062 88.316406 594.523438 87.199219 593.773438 87.234375 C 591.316406 87.316406 590.121094 84.816406 587.644531 84.546875 C 586.589844 84.445312 586.792969 81.644531 588.730469 80.695312 Z M 344.59375 153.5 C 344.589844 153.5 344.589844 153.5 344.585938 153.5 C 344.578125 153.5 344.574219 153.5 344.566406 153.5 C 344.570312 153.492188 344.574219 153.484375 344.578125 153.476562 Z M 559.457031 73.339844 C 561.441406 73.511719 563.355469 73.710938 564.222656 73.480469 C 565.195312 73.21875 565.476562 72.726562 565.640625 71.78125 C 565.804688 70.835938 566.117188 70.199219 567.027344 69.953125 C 569.097656 69.402344 569.640625 71.40625 569.726562 71.730469 L 573.710938 86.585938 C 573.679688 86.632812 573.648438 86.679688 573.617188 86.726562 C 573.578125 86.769531 573.695312 86.957031 573.832031 87.097656 C 573.953125 87.789062 573.980469 89.179688 572.304688 89.628906 C 570.945312 89.992188 569.871094 89.101562 569.28125 87.941406 C 567.292969 84.015625 563.828125 79.480469 559.257812 77.773438 C 559.402344 76.300781 559.4375 74.820312 559.457031 73.339844 Z M 673.808594 59.355469 C 673.664062 60.113281 673.25 60.742188 672.273438 61.003906 C 670.328125 61.523438 669.703125 59.957031 669.632812 59.699219 L 665.585938 44.621094 L 674.917969 42.125 L 675.925781 45.878906 C 673.199219 49.171875 673.4375 53.6875 673.773438 57.273438 C 673.816406 57.605469 673.855469 57.949219 673.867188 58.292969 C 673.808594 58.675781 673.792969 59.027344 673.808594 59.355469 Z M 703.429688 34.496094 L 705.957031 33.816406 L 710.003906 48.894531 C 710.074219 49.15625 710.3125 50.824219 708.367188 51.34375 C 706.550781 51.832031 705.777344 50.234375 705.199219 48.863281 C 703.699219 45.589844 701.644531 41.5625 697.632812 40.066406 L 696.625 36.316406 L 703.34375 34.515625 C 701.804688 36.25 702.207031 38.324219 700.464844 40.390625 C 703.964844 36.847656 703.875 39.527344 704.417969 41.367188 C 704.964844 43.226562 705.773438 44.996094 706.429688 46.828125 C 706.789062 47.808594 707.09375 49.113281 708.453125 48.507812 C 710.09375 47.785156 708.300781 47.042969 708.074219 46.480469 C 706.578125 42.574219 704.417969 38.9375 703.429688 34.496094 Z M 294.964844 159.960938 C 295.035156 160.21875 295.660156 161.785156 297.605469 161.265625 C 299.417969 160.78125 299.292969 159.011719 299.105469 157.535156 C 298.769531 153.949219 298.527344 149.433594 301.257812 146.140625 L 300.25 142.386719 L 290.917969 144.882812 Z M 331.289062 134.078125 L 321.957031 136.574219 L 322.964844 140.328125 C 326.976562 141.824219 329.027344 145.851562 330.53125 149.125 C 331.109375 150.496094 331.882812 152.09375 333.699219 151.605469 C 335.644531 151.085938 335.402344 149.417969 335.332031 149.15625 Z M 617.722656 75.554688 C 616.878906 75.273438 615.945312 75.113281 615.199219 74.664062 C 614.484375 74.25 614.082031 73.464844 614.507812 72.625 C 614.691406 72.238281 615.117188 71.761719 615.472656 71.742188 C 617.097656 71.617188 615.433594 72.859375 616.085938 73.316406 C 616.800781 73.824219 617.394531 74.507812 618.019531 75.136719 C 617.917969 75.289062 617.828125 75.40625 617.722656 75.554688 Z M 593.347656 80.996094 C 594.078125 80.109375 594.160156 78.59375 595.648438 78.699219 C 595.847656 78.71875 596.191406 79.472656 596.148438 79.84375 C 595.867188 81.777344 594.183594 80.253906 593.347656 80.996094 C 593.308594 81.042969 593.269531 81.089844 593.222656 81.132812 C 593.261719 81.082031 593.304688 81.035156 593.347656 80.996094 Z M 482.855469 95.601562 C 482.71875 95.082031 482.257812 92.847656 480.246094 93.386719 C 478.5625 93.835938 479.316406 96.132812 477.632812 96.582031 C 476.917969 96.773438 471.917969 95.476562 467.820312 96.503906 L 468.824219 100.257812 C 474.175781 100.003906 479.511719 103.847656 481.511719 108.445312 C 482.050781 109.6875 482.964844 110.761719 484.519531 110.34375 C 486.398438 109.84375 486.222656 108.15625 485.824219 106.667969 Z M 661.910156 50.074219 C 661.199219 49.773438 660.109375 49.378906 658.488281 48.65625 C 658.773438 49.8125 659.527344 50.578125 660.320312 51.304688 C 661.113281 52.027344 661.945312 52.714844 662.390625 53.707031 C 662.480469 53.367188 662.566406 53.070312 662.644531 52.804688 L 664.316406 59.039062 C 664.402344 59.363281 664.667969 60.613281 662.726562 61.132812 C 661.621094 61.425781 661.125 60.867188 660.542969 59.980469 C 657.453125 55.191406 653.296875 52.902344 647.347656 53.523438 L 646.339844 49.769531 L 659.09375 46.359375 C 659.28125 46.382812 659.46875 46.402344 659.660156 46.414062 C 659.59375 46.363281 659.53125 46.3125 659.464844 46.257812 L 660.792969 45.902344 Z M 512.566406 89.59375 C 518.511719 88.972656 522.667969 91.257812 525.757812 96.050781 C 526.34375 96.933594 526.839844 97.492188 527.941406 97.199219 C 529.886719 96.679688 529.621094 95.433594 529.535156 95.109375 L 526.007812 81.972656 L 511.558594 85.839844 Z M 683.285156 49.417969 C 684.480469 50.773438 684.746094 52.734375 686.730469 53.375 C 687.136719 53.480469 687.183594 54.183594 686.851562 54.535156 C 686.679688 54.703125 686.101562 54.761719 685.941406 54.613281 C 684.421875 53.226562 682.859375 51.828125 683.285156 49.417969 Z M 596.613281 73.652344 C 594.921875 74.175781 593.464844 74.875 593.644531 76.429688 C 593.914062 79.035156 591.179688 78.882812 590.742188 78.761719 C 588.917969 78.269531 589.175781 76.121094 589.097656 74.753906 C 588.996094 73.226562 590.566406 72.949219 591.914062 73.449219 C 593.046875 73.839844 593.550781 72.796875 594.292969 72.625 C 594.96875 72.488281 595.828125 73.289062 596.613281 73.652344 Z M 329.988281 145.269531 C 330.527344 143.976562 331.089844 142.691406 331.65625 141.34375 C 335.054688 144.128906 330.847656 144.179688 329.988281 145.269531 C 329.9375 145.386719 329.890625 145.5 329.84375 145.617188 C 329.851562 145.492188 329.902344 145.375 329.988281 145.269531 Z M 496.84375 93.277344 C 496.851562 94.023438 496.464844 94.5625 495.84375 94.484375 C 494.980469 94.402344 493.921875 94.226562 493.34375 93.683594 C 492.980469 93.320312 493.710938 92.28125 494.433594 92.28125 C 495.308594 92.3125 496.265625 92.464844 496.84375 93.277344 Z M 558.847656 77.628906 C 557.777344 77.273438 556.644531 77.074219 555.460938 77.074219 L 554.457031 73.320312 C 555.472656 73.074219 557.070312 73.148438 558.703125 73.277344 C 558.589844 74.71875 558.605469 76.171875 558.847656 77.628906 Z M 469.304688 64.984375 C 469.035156 67.46875 468.863281 69.960938 468.808594 72.453125 C 468.789062 73.335938 469.117188 74.050781 469.78125 74.316406 L 444.496094 81.082031 C 444.347656 80.925781 444.171875 80.832031 443.96875 80.855469 C 443.660156 78.515625 442.132812 76.527344 441.371094 74.332031 C 442.167969 76.625 441.628906 79.347656 442.925781 81.503906 L 442.6875 81.566406 C 442.414062 81.621094 442.125 81.65625 441.914062 81.773438 L 404.878906 91.683594 C 404.753906 91.566406 404.625 91.449219 404.492188 91.332031 C 402.113281 89.300781 399.828125 87.101562 400.214844 83.476562 Z M 571.292969 37.695312 C 573.085938 39.925781 570.476562 42.167969 571.636719 44.417969 C 572.054688 45.21875 572.382812 46.027344 572.46875 46.835938 L 539.90625 55.550781 C 539.414062 55.160156 538.921875 54.777344 538.457031 54.371094 C 538.75 54.796875 539.011719 55.253906 539.265625 55.722656 L 526.074219 59.253906 C 525.164062 57.625 523.84375 56.160156 522.234375 54.960938 C 522.472656 56.511719 523.15625 57.710938 524.046875 58.773438 C 524.285156 59.054688 524.535156 59.328125 524.796875 59.59375 L 471.105469 73.960938 C 470.890625 72.898438 470.75 71.824219 471.253906 70.75 L 471.367188 70.8125 L 471.367188 70.808594 L 471.371094 70.8125 L 471.367188 70.808594 C 471.382812 70.757812 471.398438 70.707031 471.417969 70.65625 C 473.464844 69.476562 475.496094 68.304688 477.546875 67.128906 C 478.304688 66.667969 478.199219 66.101562 477.773438 65.480469 C 477.792969 65.46875 477.816406 65.460938 477.835938 65.449219 L 477.734375 65.429688 C 477.746094 65.445312 477.761719 65.464844 477.773438 65.480469 C 475.242188 66.710938 472.429688 67.609375 471.417969 70.65625 L 471.296875 70.722656 C 469.433594 68.46875 470.554688 66.449219 471.410156 64.421875 L 473 63.996094 C 473.578125 64.210938 474.128906 64.480469 474.617188 64.886719 C 474.621094 64.90625 474.625 64.929688 474.628906 64.949219 L 474.738281 64.992188 C 474.695312 64.957031 474.65625 64.921875 474.617188 64.886719 C 474.503906 64.410156 474.359375 64.011719 474.183594 63.679688 L 481.832031 61.632812 C 482.066406 62.15625 482.191406 62.867188 482.183594 63.824219 C 482.480469 62.9375 482.453125 62.195312 482.300781 61.507812 L 506.667969 54.988281 C 506.742188 55.183594 506.824219 55.378906 506.910156 55.570312 C 507.566406 57.035156 508.503906 58.359375 510.015625 59.414062 C 508.777344 58.101562 508.285156 56.382812 507.691406 54.714844 L 515.5 52.625 C 515.9375 53.253906 516.570312 53.871094 517.003906 54.710938 C 517.265625 53.675781 517.25 52.875 517.054688 52.207031 L 521.160156 51.109375 C 521.3125 51.308594 521.503906 51.492188 521.738281 51.664062 C 521.921875 51.804688 522.601562 51.648438 522.621094 51.546875 C 522.691406 51.246094 522.714844 50.964844 522.699219 50.699219 Z M 485.558594 64.773438 C 487.363281 65.398438 488.445312 66.390625 488.3125 68.042969 C 488.226562 69.152344 487.128906 68.648438 486.527344 67.046875 C 486.421875 66.738281 486.445312 66.371094 486.3125 66.066406 C 486.199219 65.734375 485.988281 65.480469 485.558594 64.773438 Z M 620.757812 25.691406 C 621.875 27.734375 623.015625 27.550781 624.332031 26.242188 C 625.144531 25.449219 626.003906 25.628906 626.726562 26.460938 C 627.195312 26.957031 627.828125 27.363281 627.664062 28.171875 C 627.511719 29.023438 626.441406 29.476562 626.15625 29.316406 C 624.441406 28.410156 622.542969 28.707031 620.820312 28.234375 C 619.691406 27.9375 620.960938 26.714844 620.757812 25.691406 Z M 471.257812 70.746094 Z M 536.039062 52.117188 C 540.222656 48.777344 541.226562 48.582031 544.234375 50.359375 C 542.863281 50.726562 541.675781 50.25 540.601562 50.824219 C 539.515625 51.429688 538.175781 51.546875 536.039062 52.117188 Z M 525.042969 50.230469 C 525.035156 50.203125 525.027344 50.175781 525.019531 50.148438 C 525.027344 50.175781 525.035156 50.203125 525.042969 50.230469 C 525.585938 51.71875 528.535156 52.480469 526.65625 55 C 526.066406 53.234375 525.542969 51.734375 525.042969 50.230469 Z M 419.378906 83.511719 C 420.832031 82.796875 418.140625 78.863281 421.910156 79.910156 C 422.605469 80.105469 423.308594 80.15625 423.21875 81.066406 C 422.945312 83.261719 420.953125 83.019531 419.378906 83.511719 C 419.3125 83.542969 419.238281 83.570312 419.15625 83.589844 C 419.226562 83.5625 419.304688 83.535156 419.378906 83.511719 Z M 594.027344 35.972656 C 596.480469 33.964844 597.953125 32.882812 599.679688 32.347656 C 601.40625 31.8125 603.386719 31.820312 606.851562 31.992188 C 602.460938 34.625 597.855469 33.992188 594.027344 35.972656 Z M 492.359375 61.550781 C 490.816406 61.722656 490.253906 63.925781 488.414062 62.730469 C 488.273438 62.644531 488.324219 61.859375 488.371094 61.847656 C 489.601562 61.589844 490.554688 59.308594 492.359375 61.550781 Z M 540.652344 48.789062 C 541.433594 47.566406 542.402344 46.875 543.492188 46.527344 C 544.578125 46.179688 545.789062 46.171875 547.039062 46.316406 C 545.191406 47.863281 542.511719 47.191406 540.652344 48.789062 Z M 397.726562 84.140625 C 397.761719 84.292969 397.800781 84.445312 397.851562 84.597656 C 397.546875 84.503906 397.269531 84.414062 397.003906 84.332031 L 397.726562 84.140625 " fill-opacity="1" fill-rule="evenodd"/></g></svg>